<svg width="71" height="70" viewBox="0 0 71 70" fill="none" xmlns="http://www.w3.org/2000/svg">
<g id="lets-icons:cake">
<g id="Group">
<path id="Vector" d="M20.917 46.6667L21.722 51.5025C22.4978 56.1575 22.8887 58.485 24.5191 59.8675C26.1524 61.25 28.512 61.25 33.2312 61.25H37.7695C42.4887 61.25 44.8512 61.25 46.4816 59.8675C48.112 58.485 48.5028 56.1575 49.2787 51.5025L50.0837 46.6667" stroke="#E09796" stroke-width="5.83333" stroke-linecap="round" stroke-linejoin="round"/>
<path id="Vector_2" d="M39.875 13.125C41.3333 10.2083 44.25 8.75 47.1667 8.75" stroke="#E09796" stroke-width="5.83333" stroke-linecap="round"/>
<path id="Vector_3" d="M35.5003 23.3333C38.722 23.3333 41.3337 20.7217 41.3337 17.5C41.3337 14.2783 38.722 11.6667 35.5003 11.6667C32.2787 11.6667 29.667 14.2783 29.667 17.5C29.667 20.7217 32.2787 23.3333 35.5003 23.3333Z" stroke="#E09796" stroke-width="5.83333" stroke-linecap="round" stroke-linejoin="round"/>
<path id="Vector_4" fill-rule="evenodd" clip-rule="evenodd" d="M29.6668 21.9771C27.5047 23.2241 25.7995 25.1317 24.8018 27.4196C24.5795 27.9292 24.2163 28.3646 23.7549 28.6747C23.2934 28.9847 22.753 29.1564 22.1972 29.1696C21.0571 29.1973 19.9394 29.4921 18.934 30.0303C17.9285 30.5684 17.0633 31.3349 16.4078 32.2681C15.7524 33.2013 15.3249 34.2753 15.1599 35.4037C14.9948 36.5321 15.0967 37.6835 15.4574 38.7654C15.8181 39.8472 16.4275 40.8294 17.2367 41.633C18.0459 42.4366 19.0323 43.0392 20.1167 43.3923C21.2011 43.7455 22.3531 43.8394 23.4804 43.6664C24.6076 43.4935 25.6785 43.0586 26.6072 42.3967C27.0601 42.0727 27.5963 41.8851 28.1525 41.8562C28.7086 41.8272 29.2614 41.9581 29.7455 42.2333C31.4401 43.1958 33.4001 43.75 35.5001 43.75C37.6001 43.75 39.5601 43.1958 41.2547 42.2333C41.7388 41.9581 42.2916 41.8272 42.8477 41.8562C43.4039 41.8851 43.9401 42.0727 44.393 42.3967C45.3217 43.0586 46.3926 43.4935 47.5198 43.6664C48.6471 43.8394 49.7991 43.7455 50.8835 43.3923C51.9679 43.0392 52.9543 42.4366 53.7635 41.633C54.5727 40.8294 55.1821 39.8472 55.5428 38.7654C55.9035 37.6835 56.0054 36.5321 55.8403 35.4037C55.6753 34.2753 55.2478 33.2013 54.5924 32.2681C53.9369 31.3349 53.0717 30.5684 52.0662 30.0303C51.0608 29.4921 49.9431 29.1973 48.803 29.1696C48.2472 29.1564 47.7068 28.9847 47.2453 28.6747C46.7839 28.3646 46.4207 27.9292 46.1984 27.4196C45.2007 25.1317 43.4955 23.2241 41.3334 21.9771V15.5779C45.3276 16.9967 48.6738 19.8124 50.7543 23.5054C52.6286 23.8135 54.4137 24.5247 55.9865 25.5898C57.5592 26.655 58.8821 28.0487 59.8637 29.6749C60.8454 31.3011 61.4625 33.1209 61.6724 35.0087C61.8823 36.8966 61.68 38.8075 61.0796 40.6096C60.4791 42.4116 59.4947 44.0619 58.1944 45.4466C56.894 46.8312 55.3087 47.9171 53.5478 48.6294C51.7869 49.3417 49.8925 49.6634 47.9952 49.5723C46.0979 49.4812 44.2429 48.9794 42.5584 48.1017C40.3341 49.0803 37.9302 49.5849 35.5001 49.5833C33.0698 49.584 30.6659 49.0784 28.4418 48.0987C26.7577 48.9763 24.9032 49.478 23.0064 49.5691C21.1096 49.6603 19.2156 49.3387 17.4552 48.6267C15.6947 47.9146 14.1097 46.8291 12.8096 45.4449C11.5095 44.0607 10.5253 42.4109 9.92485 40.6093C9.3244 38.8077 9.12204 36.8973 9.33173 35.0099C9.54143 33.1225 10.1582 31.3031 11.1394 29.6773C12.1207 28.0514 13.4431 26.6579 15.0153 25.5928C16.5875 24.5278 18.3721 23.8166 20.2459 23.5083C22.3259 19.8142 25.6721 16.9974 29.6668 15.5779V21.9771Z" fill="#E09796"/>
</g>
</g>
</svg>
