<svg width="71" height="70" viewBox="0 0 71 70" fill="none" xmlns="http://www.w3.org/2000/svg">
<path d="M2.6875 21.875H31.125L33.3125 26.25H4.875L2.6875 21.875ZM5.60417 30.625H34.0417L36.2292 35H7.79167L5.60417 30.625ZM53 53.9583C55.4208 53.9583 57.375 52.0042 57.375 49.5833C57.375 47.1625 55.4208 45.2083 53 45.2083C50.5792 45.2083 48.625 47.1625 48.625 49.5833C48.625 52.0042 50.5792 53.9583 53 53.9583ZM57.375 27.7083H50.0833V35H63.0917L57.375 27.7083ZM23.8333 53.9583C26.2542 53.9583 28.2083 52.0042 28.2083 49.5833C28.2083 47.1625 26.2542 45.2083 23.8333 45.2083C21.4125 45.2083 19.4583 47.1625 19.4583 49.5833C19.4583 52.0042 21.4125 53.9583 23.8333 53.9583ZM58.8333 23.3333L67.5833 35V49.5833H61.75C61.75 54.425 57.8417 58.3333 53 58.3333C48.1583 58.3333 44.25 54.425 44.25 49.5833H32.5833C32.5833 54.425 28.6458 58.3333 23.8333 58.3333C18.9917 58.3333 15.0833 54.425 15.0833 49.5833H9.25V39.375H15.0833V43.75H17.3C18.9042 41.9708 21.2375 40.8333 23.8333 40.8333C26.4292 40.8333 28.7625 41.9708 30.3667 43.75H44.25V17.5H9.25C9.25 14.2625 11.8458 11.6667 15.0833 11.6667H50.0833V23.3333H58.8333Z" fill="#E09796"/>
</svg>
