<svg width="71" height="70" viewBox="0 0 71 70" fill="none" xmlns="http://www.w3.org/2000/svg">
<path d="M64.6665 35V58.3333C64.6665 59.8804 64.0519 61.3642 62.958 62.4581C61.864 63.5521 60.3803 64.1667 58.8332 64.1667H12.1665C10.6194 64.1667 9.13568 63.5521 8.04171 62.4581C6.94775 61.3642 6.33317 59.8804 6.33317 58.3333V35C5.55962 35 4.81776 34.6927 4.27078 34.1457C3.72379 33.5988 3.4165 32.8569 3.4165 32.0833V23.3333C3.4165 21.7862 4.03109 20.3025 5.12505 19.2086C6.21901 18.1146 7.70274 17.5 9.24984 17.5H18.4957C18.166 16.563 17.9984 15.5767 17.9998 14.5833C17.9998 12.2627 18.9217 10.0371 20.5627 8.39616C22.2036 6.75522 24.4292 5.83334 26.7498 5.83334C29.6665 5.83334 32.2332 7.29168 33.8373 9.45001V9.42084L35.4998 11.6667L37.1623 9.42084V9.45001C38.7665 7.29168 41.3332 5.83334 44.2498 5.83334C46.5705 5.83334 48.7961 6.75522 50.437 8.39616C52.078 10.0371 52.9998 12.2627 52.9998 14.5833C53.0013 15.5767 52.8336 16.563 52.504 17.5H61.7498C63.2969 17.5 64.7807 18.1146 65.8746 19.2086C66.9686 20.3025 67.5832 21.7862 67.5832 23.3333V32.0833C67.5832 32.8569 67.2759 33.5988 66.7289 34.1457C66.1819 34.6927 65.44 35 64.6665 35ZM12.1665 58.3333H32.5832V35H12.1665V58.3333ZM58.8332 58.3333V35H38.4165V58.3333H58.8332ZM26.7498 11.6667C25.9763 11.6667 25.2344 11.974 24.6874 12.5209C24.1405 13.0679 23.8332 13.8098 23.8332 14.5833C23.8332 15.3569 24.1405 16.0988 24.6874 16.6457C25.2344 17.1927 25.9763 17.5 26.7498 17.5C27.5234 17.5 28.2652 17.1927 28.8122 16.6457C29.3592 16.0988 29.6665 15.3569 29.6665 14.5833C29.6665 13.8098 29.3592 13.0679 28.8122 12.5209C28.2652 11.974 27.5234 11.6667 26.7498 11.6667ZM44.2498 11.6667C43.4763 11.6667 42.7344 11.974 42.1874 12.5209C41.6405 13.0679 41.3332 13.8098 41.3332 14.5833C41.3332 15.3569 41.6405 16.0988 42.1874 16.6457C42.7344 17.1927 43.4763 17.5 44.2498 17.5C45.0234 17.5 45.7652 17.1927 46.3122 16.6457C46.8592 16.0988 47.1665 15.3569 47.1665 14.5833C47.1665 13.8098 46.8592 13.0679 46.3122 12.5209C45.7652 11.974 45.0234 11.6667 44.2498 11.6667ZM9.24984 23.3333V29.1667H32.5832V23.3333H9.24984ZM38.4165 23.3333V29.1667H61.7498V23.3333H38.4165Z" fill="#E09796"/>
</svg>
